<svg viewBox="0 0 16 16"><path fill="#828282" d="M 8 1 C 4.132812 1 1 4.132812 1 8 C 1 11.867188 4.132812 15 8 15 C 11.867188 15 15 11.867188 15 8 C 15 4.132812 11.867188 1 8 1 Z M 8.664062 9.839844 C 7.9375 10.859375 6.480469 11.15625 5.34375 10.722656 C 4.203125 10.285156 3.398438 9.082031 3.492188 7.855469 C 3.519531 6.351562 4.898438 5.035156 6.402344 5.085938 C 7.121094 5.054688 7.796875 5.367188 8.347656 5.804688 C 8.113281 6.074219 7.871094 6.332031 7.609375 6.570312 C 6.945312 6.113281 6.003906 5.984375 5.34375 6.511719 C 4.394531 7.167969 4.351562 8.714844 5.261719 9.421875 C 6.148438 10.226562 7.824219 9.828125 8.070312 8.59375 C 7.515625 8.585938 6.957031 8.59375 6.402344 8.578125 C 6.402344 8.246094 6.398438 7.914062 6.402344 7.582031 C 7.332031 7.578125 8.257812 7.578125 9.1875 7.585938 C 9.246094 8.363281 9.140625 9.195312 8.664062 9.839844 Z M 12.667969 8.414062 C 12.390625 8.414062 12.113281 8.417969 11.835938 8.417969 C 11.832031 8.699219 11.832031 8.976562 11.828125 9.253906 C 11.550781 9.253906 11.277344 9.253906 11 9.253906 C 10.996094 8.976562 10.996094 8.699219 10.992188 8.421875 C 10.714844 8.417969 10.4375 8.414062 10.160156 8.414062 C 10.160156 8.136719 10.160156 7.859375 10.160156 7.585938 C 10.4375 7.582031 10.714844 7.578125 10.992188 7.578125 C 10.996094 7.300781 10.996094 7.023438 11 6.746094 C 11.277344 6.746094 11.550781 6.746094 11.828125 6.746094 C 11.832031 7.023438 11.832031 7.300781 11.835938 7.578125 C 12.113281 7.582031 12.390625 7.582031 12.667969 7.585938 C 12.667969 7.859375 12.667969 8.136719 12.667969 8.414062 Z M 12.667969 8.414062 "/></svg>
