<svg viewBox="0 0 16 16"><path fill="#828282" d="M 13.632812 13.632812 L 11.261719 13.632812 L 11.261719 9.921875 C 11.261719 9.035156 11.246094 7.894531 10.027344 7.894531 C 8.792969 7.894531 8.605469 8.859375 8.605469 9.855469 L 8.605469 13.632812 L 6.234375 13.632812 L 6.234375 6 L 8.511719 6 L 8.511719 7.042969 L 8.542969 7.042969 C 8.859375 6.441406 9.632812 5.808594 10.785156 5.808594 C 13.191406 5.808594 13.632812 7.390625 13.632812 9.445312 Z M 3.558594 4.953125 C 2.796875 4.953125 2.183594 4.339844 2.183594 3.578125 C 2.183594 2.820312 2.796875 2.203125 3.558594 2.203125 C 4.316406 2.203125 4.933594 2.820312 4.933594 3.578125 C 4.933594 4.339844 4.316406 4.953125 3.558594 4.953125 Z M 4.746094 13.632812 L 2.371094 13.632812 L 2.371094 6 L 4.746094 6 Z M 14.816406 0 L 1.179688 0 C 0.53125 0 0 0.515625 0 1.152344 L 0 14.84375 C 0 15.484375 0.53125 16 1.179688 16 L 14.816406 16 C 15.46875 16 16 15.484375 16 14.84375 L 16 1.152344 C 16 0.515625 15.46875 0 14.816406 0 "/></svg>
