<svg viewBox="0 0 16 16"><title>Instagram</title><path fill="#828282" d="M 13.402344 15.027344 L 2.632812 15.027344 C 1.742188 15.027344 1.019531 14.304688 1.019531 13.410156 L 1.019531 2.640625 C 1.019531 1.75 1.742188 1.027344 2.632812 1.027344 L 13.402344 1.027344 C 14.296875 1.027344 15.019531 1.75 15.019531 2.640625 L 15.019531 13.410156 C 15.019531 14.304688 14.296875 15.027344 13.402344 15.027344 M 8.019531 5.332031 C 6.53125 5.332031 5.328125 6.539062 5.328125 8.027344 C 5.328125 9.511719 6.53125 10.71875 8.019531 10.71875 C 9.503906 10.71875 10.710938 9.511719 10.710938 8.027344 C 10.710938 6.539062 9.503906 5.332031 8.019531 5.332031 M 13.402344 3.179688 C 13.402344 2.882812 13.164062 2.640625 12.863281 2.640625 L 11.25 2.640625 C 10.953125 2.640625 10.710938 2.882812 10.710938 3.179688 L 10.710938 4.796875 C 10.710938 5.09375 10.953125 5.332031 11.25 5.332031 L 12.863281 5.332031 C 13.164062 5.332031 13.402344 5.09375 13.402344 4.796875 Z M 13.402344 6.949219 L 12.183594 6.949219 C 12.273438 7.292969 12.328125 7.652344 12.328125 8.027344 C 12.328125 10.40625 10.398438 12.332031 8.019531 12.332031 C 5.640625 12.332031 3.710938 10.40625 3.710938 8.027344 C 3.710938 7.652344 3.765625 7.292969 3.851562 6.949219 L 2.632812 6.949219 L 2.632812 12.871094 C 2.632812 13.167969 2.875 13.410156 3.171875 13.410156 L 12.863281 13.410156 C 13.164062 13.410156 13.402344 13.167969 13.402344 12.871094 Z M 13.402344 6.949219 "/></svg>
