<svg viewBox="0 0 16 16"><path fill="#828282" d="M 8 0 C 3.582031 0 0 3.582031 0 8 C 0 12.417969 3.582031 16 8 16 C 12.417969 16 16 12.417969 16 8 C 16 3.582031 12.417969 0 8 0 Z M 8.757812 10.101562 C 7.929688 11.269531 6.265625 11.609375 4.964844 11.109375 C 3.660156 10.613281 2.738281 9.238281 2.847656 7.832031 C 2.878906 6.117188 4.457031 4.613281 6.171875 4.667969 C 6.996094 4.632812 7.769531 4.988281 8.398438 5.492188 C 8.128906 5.796875 7.851562 6.09375 7.554688 6.367188 C 6.796875 5.84375 5.71875 5.695312 4.960938 6.300781 C 3.878906 7.050781 3.828125 8.816406 4.871094 9.625 C 5.886719 10.542969 7.800781 10.089844 8.082031 8.679688 C 7.445312 8.671875 6.808594 8.679688 6.175781 8.660156 C 6.171875 8.28125 6.171875 7.902344 6.171875 7.523438 C 7.234375 7.519531 8.296875 7.519531 9.359375 7.527344 C 9.421875 8.417969 9.304688 9.367188 8.757812 10.101562 Z M 13.332031 8.472656 C 13.015625 8.472656 12.699219 8.476562 12.382812 8.480469 C 12.378906 8.796875 12.378906 9.113281 12.375 9.429688 C 12.058594 9.429688 11.742188 9.429688 11.425781 9.429688 C 11.425781 9.113281 11.425781 8.796875 11.421875 8.480469 C 11.105469 8.476562 10.785156 8.472656 10.46875 8.472656 C 10.46875 8.15625 10.46875 7.839844 10.46875 7.523438 C 10.785156 7.519531 11.101562 7.519531 11.421875 7.519531 C 11.421875 7.199219 11.425781 6.882812 11.429688 6.566406 C 11.742188 6.566406 12.058594 6.566406 12.375 6.566406 C 12.378906 6.882812 12.378906 7.203125 12.382812 7.519531 C 12.699219 7.519531 13.015625 7.519531 13.332031 7.523438 C 13.332031 7.839844 13.332031 8.15625 13.332031 8.472656 Z M 13.332031 8.472656 "/></svg>
